<?xml version="1.0" standalone="no"?>
<!DOCTYPE svg PUBLIC "-//W3C//DTD SVG 20010904//EN"
 "http://www.w3.org/TR/2001/REC-SVG-20010904/DTD/svg10.dtd">
<svg version="1.0" xmlns="http://www.w3.org/2000/svg"
 width="1304.000000pt" height="1304.000000pt" viewBox="0 0 1304.000000 1304.000000"
 preserveAspectRatio="xMidYMid meet">

<g transform="translate(0.000000,1304.000000) scale(0.100000,-0.100000)"
fill="#000000" stroke="none">
<path d="M6095 13029 c-2512 -163 -4708 -1762 -5638 -4104 -396 -996 -537
-2065 -416 -3150 264 -2376 1839 -4431 4074 -5318 1220 -484 2567 -588 3857
-296 1432 323 2731 1140 3651 2296 1080 1357 1570 3067 1376 4808 -213 1911
-1287 3653 -2904 4710 -958 627 -2026 982 -3175 1055 -189 12 -634 11 -825 -1z
m745 -889 c1013 -62 1948 -372 2785 -925 1331 -879 2237 -2302 2464 -3875 43
-297 55 -473 55 -820 0 -347 -12 -523 -55 -820 -147 -1020 -587 -1999 -1254
-2795 -726 -865 -1712 -1503 -2787 -1804 -1003 -280 -2053 -280 -3056 0 -546
153 -1091 403 -1577 724 -1331 879 -2237 2302 -2464 3875 -43 297 -55 473 -55
820 0 347 12 523 55 820 117 809 416 1592 874 2285 682 1033 1706 1825 2878
2224 680 232 1430 334 2137 291z"/>
<path d="M6216 11140 c-259 -18 -635 -78 -845 -134 -64 -18 -67 -20 -54 -48 5
-13 290 -672 634 -1465 343 -793 627 -1439 631 -1435 5 5 1102 2558 1233 2869
l14 32 -67 21 c-185 56 -513 117 -772 145 -178 19 -599 27 -774 15z"/>
<path d="M3955 10372 c-280 -188 -474 -349 -715 -591 -152 -153 -337 -363
-403 -458 l-27 -39 1133 -2443 c622 -1344 1136 -2443 1141 -2443 5 1 187 453
405 1006 l396 1006 680 0 680 0 393 -958 c217 -527 397 -965 402 -972 7 -11
17 4 40 55 17 39 503 1130 1079 2425 l1049 2355 -26 35 c-127 175 -454 518
-656 690 -177 150 -550 420 -563 407 -2 -3 -395 -843 -873 -1868 l-869 -1864
-383 -7 c-211 -4 -500 -7 -642 -5 l-259 2 -923 1874 c-508 1030 -925 1875
-927 1877 -1 2 -61 -36 -132 -84z"/>
<path d="M9566 5144 c-724 -1598 -1315 -2908 -1313 -2911 13 -12 375 160 567
270 235 135 497 319 705 497 141 120 395 374 515 515 948 1113 1315 2594 995
4025 -34 152 -122 458 -141 493 -8 14 -290 -601 -1328 -2889z"/>
<path d="M2042 7693 c-255 -968 -182 -2020 204 -2950 234 -564 564 -1054 1003
-1494 363 -363 749 -642 1201 -869 126 -64 422 -192 428 -186 5 6 -2791 5616
-2799 5616 -3 0 -20 -53 -37 -117z"/>
<path d="M6522 5175 c-104 -271 -1184 -3112 -1185 -3119 -3 -13 64 -31 258
-71 696 -142 1436 -120 2119 63 76 20 140 41 142 47 3 6 -286 710 -642 1565
-355 855 -649 1564 -653 1575 -6 15 -14 2 -39 -60z"/>
</g>
</svg>
